<svg viewBox="0 0 70 70" fill="none" xmlns="http://www.w3.org/2000/svg">
<rect x="1.5" y="1.5" width="67" height="67" rx="5.5" fill="#fff3ec" stroke="#140d0b" stroke-width="3"></rect>
<path d="M26.5 30.5C32.0228 30.5 36.5 34.9772 36.5 40.5C36.5 46.0228 32.0228 50.5 26.5 50.5C20.9772 50.5 16.5 46.0228 16.5 40.5C16.5 34.9772 20.9772 30.5 26.5 30.5Z" fill="#e78fb3" stroke="#140d0b" stroke-width="3"></path>
<path d="M34.5 19.5C40.0228 19.5 44.5 23.9772 44.5 29.5C44.5 35.0228 40.0228 39.5 34.5 39.5C28.9772 39.5 24.5 35.0228 24.5 29.5C24.5 23.9772 28.9772 19.5 34.5 19.5Z" fill="#ffc0ad" stroke="#140d0b" stroke-width="3"></path>
<path d="M42.5 30.5C48.0228 30.5 52.5 34.9772 52.5 40.5C52.5 46.0228 48.0228 50.5 42.5 50.5C36.9772 50.5 32.5 46.0228 32.5 40.5C32.5 34.9772 36.9772 30.5 42.5 30.5Z" fill="#9656a1" stroke="#140d0b" stroke-width="3"></path>
</svg>