<svg viewBox="0 0 70 70" fill="none" xmlns="http://www.w3.org/2000/svg">
<rect x="1.5" y="1.5" width="67" height="67" rx="5.5" fill="#fff3ec" stroke="#140d0b" stroke-width="3"></rect>
<path d="M53.5 41.5058C53.5 52.0307 45.183 60.5 35 60.5C24.817 60.5 16.5 52.0307 16.5 41.5058C16.5 36.5795 19.1443 31.3489 22.6599 26.6204C26.1459 21.9319 30.3277 17.9497 33.0646 15.555C34.1924 14.5683 35.8076 14.5683 36.9354 15.555C39.6723 17.9497 43.8541 21.9319 47.3401 26.6204C50.8557 31.3489 53.5 36.5795 53.5 41.5058Z" fill="#e78fb3" stroke="#140d0b" stroke-width="3"></path>
<path d="M26.001 37.2174C26.3706 36.1087 27.3247 35 28.9575 35C30.5904 35 31.5445 36.1087 31.9141 37.2174" stroke="#140d0b" stroke-width="2.5" stroke-linecap="round"></path>
<path d="M39.001 37.2174C39.3706 36.1087 40.3247 35 41.9575 35C43.5904 35 44.5445 36.1087 44.9141 37.2174" stroke="#140d0b" stroke-width="2.5" stroke-linecap="round"></path>
<path d="M39 42.4348C38.5625 43.4348 37.433 44.4348 35.5 44.4348C33.567 44.4348 32.4375 43.4348 32 42.4348" stroke="#140d0b" stroke-width="2.5" stroke-linecap="round"></path>
<path d="M47.325 19C50.2221 17.9381 52 16.5021 52 14.9215C52 11.6512 44.3888 9 35 9C25.6112 9 18 11.6512 18 14.9215C18 16.3411 19.434 17.644 21.825 18.664" stroke="#140d0b" stroke-width="3" stroke-linecap="round"></path>
</svg>