<svg viewBox="0 0 70 70" fill="none" xmlns="http://www.w3.org/2000/svg">
<rect x="1.5" y="1.5" width="67" height="67" rx="5.5" fill="white" stroke="#140d0b" stroke-width="3"></rect>
<path d="M38.318 8.69315L39.1197 9.97186C40.3933 12.0035 43.0362 12.6796 45.129 11.5091L46.0884 10.9725C48.4214 9.66772 51.2969 11.3541 51.2969 14.0272V14.9379C51.2969 17.2692 53.0774 19.2145 55.3996 19.4203L56.3816 19.5074C59.0029 19.7397 60.4398 22.6731 59.0166 24.8866L60.2783 25.6978L59.0166 24.8866L58.5417 25.6252C57.1564 27.7797 57.8464 30.6544 60.0586 31.9455L60.686 32.3116C63.0251 33.6767 62.9941 37.0672 60.6303 38.3892L59.9608 38.7637C57.8084 39.9675 57.0742 42.7104 58.3374 44.8285C59.6485 47.027 58.0644 49.8162 55.5046 49.8162H55C52.5147 49.8162 50.5 51.8309 50.5 54.3162V55.1037C50.5 57.7979 47.5837 59.4818 45.2503 58.135L45.1034 58.0502C43.0414 56.8601 40.4092 57.4819 39.0979 59.4691L38.2726 60.7198C36.8738 62.8396 33.7538 62.8106 32.3947 60.6651L31.6494 59.4887C30.388 57.4974 27.8037 56.8171 25.7253 57.9289L24.651 58.5037C22.3195 59.7509 19.5 58.0617 19.5 55.4175V55.1107C19.5 52.6254 17.4853 50.6107 15 50.6107H14.4136C11.8099 50.6107 10.1178 47.869 11.285 45.5416L11.6938 44.7266C12.7643 42.592 11.9811 39.9929 9.90934 38.8053L9.15271 38.3715C6.83197 37.0411 6.80102 33.7047 9.09667 32.3314L9.9379 31.8282C12.0007 30.5943 12.7295 27.9571 11.5932 25.839L10.7881 24.3385C9.53719 22.0068 11.2263 19.1838 13.8723 19.1838H15C17.4853 19.1838 19.5 17.1691 19.5 14.6838V14.0272C19.5 11.3541 22.3754 9.66772 24.7084 10.9725L25.6221 11.4835C27.7426 12.6695 30.4215 11.9581 31.6743 9.87644L32.3538 8.74744C33.6997 6.51105 36.9317 6.48163 38.318 8.69315L39.589 7.89642L38.318 8.69315Z" fill="#9656a1" stroke="#140d0b" stroke-width="3"></path>
<circle cx="35.5" cy="34.5" r="19" fill="#e78fb3" stroke="#140d0b" stroke-width="3"></circle>
<path d="M26.001 31.7826C26.3706 30.6739 27.3247 29.5652 28.9575 29.5652C30.5904 29.5652 31.5445 30.6739 31.9141 31.7826" stroke="#140d0b" stroke-width="2.5" stroke-linecap="round"></path>
<path d="M39.001 31.7826C39.3706 30.6739 40.3247 29.5652 41.9575 29.5652C43.5904 29.5652 44.5445 30.6739 44.9141 31.7826" stroke="#140d0b" stroke-width="2.5" stroke-linecap="round"></path>
<path d="M39 37C38.5625 38 37.433 39 35.5 39C33.567 39 32.4375 38 32 37" stroke="#140d0b" stroke-width="2.5" stroke-linecap="round"></path>
</svg>